<?xml version="1.0" encoding="utf-8"?>
<!-- Generator: Adobe Illustrator 15.0.0, SVG Export Plug-In . SVG Version: 6.00 Build 0)  -->
<!DOCTYPE svg PUBLIC "-//W3C//DTD SVG 1.1//EN" "http://www.w3.org/Graphics/SVG/1.1/DTD/svg11.dtd">
<svg version="1.1" id="Layer_1" xmlns="http://www.w3.org/2000/svg" xmlns:xlink="http://www.w3.org/1999/xlink" x="0px" y="0px"
	 width="20px" height="19px" viewBox="0 0 20 19" enable-background="new 0 0 20 19" xml:space="preserve">
<path fill="#FFFFFF" d="M2.98,7.542c-0.804,0-1.459,0.654-1.459,1.458c0,0.804,0.655,1.459,1.459,1.459
	c0.803,0,1.458-0.655,1.458-1.459C4.438,8.196,3.784,7.542,2.98,7.542z"/>
<path fill="#FFFFFF" d="M15.277,7.542c-0.805,0-1.459,0.654-1.459,1.458c0,0.804,0.654,1.459,1.459,1.459
	c0.803,0,1.457-0.655,1.457-1.459C16.734,8.196,16.08,7.542,15.277,7.542z"/>
<polyline fill="#FFFFFF" points="3.814,12.322 3.814,14.833 14.443,14.833 14.443,12.322 16.11,12.322 16.11,16.5 2.147,16.5 
	2.147,12.322 3.814,12.322 "/>
<polyline fill="#FFFFFF" points="14.443,5.658 14.443,3.167 3.814,3.167 3.814,5.658 2.147,5.658 2.147,1.5 16.11,1.5 16.11,5.658 
	"/>
</svg>
