<?xml version="1.0" encoding="utf-8"?>
<!-- Generator: Adobe Illustrator 15.0.0, SVG Export Plug-In  -->
<!DOCTYPE svg PUBLIC "-//W3C//DTD SVG 1.1//EN" "http://www.w3.org/Graphics/SVG/1.1/DTD/svg11.dtd" [
	<!ENTITY ns_flows "http://ns.adobe.com/Flows/1.0/">
]>
<svg version="1.1"
	 xmlns="http://www.w3.org/2000/svg" xmlns:xlink="http://www.w3.org/1999/xlink" xmlns:a="http://ns.adobe.com/AdobeSVGViewerExtensions/3.0/"
	 x="0px" y="0px" width="16px" height="16px" viewBox="-0.021 -0.5 16 16"
	 overflow="visible" enable-background="new -0.021 -0.5 16 16" xml:space="preserve">
<defs>
</defs>
<circle fill="#FFFFFF" cx="1.459" cy="5" r="1.458"/>
<path fill="#FFFFFF" d="M1.459,8.542C0.655,8.542,0,9.196,0,9.999c0,0.804,0.655,1.459,1.459,1.459c0.803,0,1.458-0.655,1.458-1.459
	C2.917,9.196,2.262,8.542,1.459,8.542z"/>
<path fill="#FFFFFF" d="M13.756,6.042c-0.805,0-1.459,0.654-1.459,1.458c0,0.804,0.654,1.459,1.459,1.459
	c0.803,0,1.457-0.655,1.457-1.459C15.213,6.696,14.559,6.042,13.756,6.042z"/>
<polygon fill="#FFFFFF" points="12.922,10.715 12.922,13.333 2.292,13.333 0.625,13.333 0.625,15 14.589,15 14.589,10.715 "/>
<polygon fill="#FFFFFF" points="0.625,0 0.625,1.667 12.922,1.667 12.922,4.285 14.589,4.285 14.589,0 "/>
</svg>
