<?xml version="1.0" encoding="utf-8"?>
<!-- Generator: Adobe Illustrator 15.0.0, SVG Export Plug-In  -->
<!DOCTYPE svg PUBLIC "-//W3C//DTD SVG 1.1//EN" "http://www.w3.org/Graphics/SVG/1.1/DTD/svg11.dtd" [
	<!ENTITY ns_flows "http://ns.adobe.com/Flows/1.0/">
]>
<svg version="1.1"
	 xmlns="http://www.w3.org/2000/svg" xmlns:xlink="http://www.w3.org/1999/xlink" xmlns:a="http://ns.adobe.com/AdobeSVGViewerExtensions/3.0/"
	 x="0px" y="0px" width="179px" height="18px" viewBox="102 59 179 18" overflow="visible" enable-background="new 102 59 179 18"
	 xml:space="preserve">
<defs>
</defs>
<rect display="none" width="1021.667" height="770.223"/>
<path fill="#FFFFFF" d="M107.573,60.89c0.234,0,0.463-0.006,0.686-0.018s0.463-0.026,0.721-0.044s0.469-0.032,0.633-0.044
	c0.023,0.07,0.035,0.158,0.035,0.264c0,0.164-0.023,0.246-0.07,0.246c-0.117,0-0.328,0.041-0.633,0.123s-0.469,0.164-0.492,0.246
	c-0.105,0.41-0.158,0.955-0.158,1.635v7.629c0,1.477-0.413,2.76-1.239,3.85s-1.878,1.635-3.155,1.635
	c-0.129,0-0.27-0.023-0.422-0.07s-0.275-0.094-0.369-0.141l-0.123-0.07c-0.141-0.164-0.211-0.381-0.211-0.65
	c0-0.258,0.108-0.469,0.325-0.633s0.472-0.246,0.765-0.246c0.211,0,0.448,0.126,0.712,0.378s0.472,0.378,0.624,0.378
	c0.164,0,0.331-0.082,0.501-0.246s0.337-0.404,0.501-0.721s0.299-0.765,0.404-1.345s0.158-1.239,0.158-1.978v-7.84
	c0-0.727-0.041-1.248-0.123-1.564c-0.035-0.094-0.202-0.179-0.501-0.255s-0.524-0.114-0.677-0.114c-0.047,0-0.07-0.076-0.07-0.229
	c0-0.141,0.023-0.234,0.07-0.281c0.152,0.012,0.463,0.032,0.932,0.062S107.257,60.89,107.573,60.89z"/>
<path fill="#FFFFFF" d="M114.016,60.873c0.188,0,0.867-0.029,2.039-0.088c0.023,0.07,0.035,0.152,0.035,0.246
	c0,0.176-0.023,0.264-0.07,0.264c-0.117,0-0.328,0.041-0.633,0.123s-0.469,0.164-0.492,0.246c-0.105,0.41-0.158,0.955-0.158,1.635
	v3.92c0,1.324,0.281,2.379,0.844,3.164s1.359,1.178,2.391,1.178c2.004,0,3.006-1.318,3.006-3.955V63.21
	c0-0.715-0.041-1.23-0.123-1.547c-0.035-0.094-0.237-0.185-0.606-0.272s-0.63-0.132-0.782-0.132c-0.047,0-0.07-0.067-0.07-0.202
	s0.023-0.226,0.07-0.272c0.152,0.012,0.457,0.032,0.914,0.062s0.844,0.044,1.16,0.044c0.305,0,0.688-0.018,1.151-0.053
	s0.735-0.053,0.817-0.053c0.023,0.07,0.035,0.158,0.035,0.264c0,0.141-0.023,0.211-0.07,0.211c-0.117,0-0.372,0.047-0.765,0.141
	s-0.601,0.182-0.624,0.264c-0.094,0.363-0.141,0.908-0.141,1.635v4.271c0,1.816-0.381,3.079-1.143,3.788s-1.846,1.063-3.252,1.063
	c-1.395,0-2.467-0.41-3.217-1.23s-1.125-2.145-1.125-3.973v-3.99c0-0.727-0.041-1.248-0.123-1.564
	c-0.035-0.094-0.202-0.179-0.501-0.255s-0.524-0.114-0.677-0.114c-0.047,0-0.07-0.076-0.07-0.229c0-0.141,0.023-0.234,0.07-0.281
	C113.254,60.843,113.958,60.873,114.016,60.873z"/>
<path fill="#FFFFFF" d="M126.12,63.808c0-0.902,0.346-1.644,1.037-2.224s1.494-0.87,2.408-0.87c0.258,0,0.501,0.015,0.729,0.044
	s0.416,0.062,0.562,0.097s0.357,0.091,0.633,0.167s0.519,0.138,0.729,0.185c0.141,0.621,0.211,1.459,0.211,2.514
	c0,0.082-0.059,0.123-0.176,0.123c-0.281,0-0.434-0.059-0.457-0.176c-0.059-0.516-0.308-1.017-0.747-1.503s-0.976-0.729-1.608-0.729
	c-0.703,0-1.198,0.176-1.485,0.527s-0.431,0.785-0.431,1.301c0,0.223,0.041,0.437,0.123,0.642s0.164,0.375,0.246,0.51
	s0.231,0.29,0.448,0.466s0.375,0.299,0.475,0.369s0.299,0.199,0.598,0.387s0.489,0.305,0.571,0.352
	c0.059,0.035,0.264,0.161,0.615,0.378s0.592,0.369,0.721,0.457s0.331,0.246,0.606,0.475s0.475,0.431,0.598,0.606
	s0.24,0.396,0.352,0.659s0.167,0.536,0.167,0.817c0,0.938-0.366,1.708-1.099,2.312s-1.591,0.905-2.575,0.905
	c-0.281,0-0.58-0.021-0.896-0.062s-0.58-0.082-0.791-0.123s-0.478-0.1-0.8-0.176s-0.548-0.126-0.677-0.149
	c-0.293-1.441-0.439-2.373-0.439-2.795c0-0.07,0.094-0.105,0.281-0.105c0.211,0,0.357,0.053,0.439,0.158
	c0.398,1.688,1.371,2.531,2.918,2.531c0.586,0,1.084-0.176,1.494-0.527s0.615-0.85,0.615-1.494c0-0.234-0.035-0.451-0.105-0.65
	s-0.144-0.363-0.22-0.492s-0.211-0.267-0.404-0.413s-0.343-0.255-0.448-0.325s-0.299-0.182-0.58-0.334s-0.475-0.258-0.58-0.316
	c-0.34-0.199-0.577-0.34-0.712-0.422s-0.357-0.226-0.668-0.431s-0.536-0.387-0.677-0.545s-0.305-0.352-0.492-0.58
	s-0.319-0.472-0.396-0.729S126.12,64.089,126.12,63.808z"/>
<path fill="#FFFFFF" d="M138.741,60.855c0.803,0.023,1.462,0.035,1.978,0.035s1.178-0.012,1.986-0.035s1.436-0.035,1.881-0.035
	c0.293,0,0.697-0.064,1.213-0.193l0.334,2.514c-0.082,0.082-0.223,0.123-0.422,0.123c-0.105,0-0.164-0.029-0.176-0.088
	c-0.164-0.656-0.366-1.081-0.606-1.274s-0.694-0.29-1.362-0.29c-1.242,0-1.887,0.088-1.934,0.264
	c-0.105,0.375-0.158,0.961-0.158,1.758v6.346c0,0.68,0.053,1.225,0.158,1.635c0.023,0.082,0.188,0.161,0.492,0.237
	s0.516,0.114,0.633,0.114c0.047,0,0.07,0.088,0.07,0.264c0,0.094-0.012,0.176-0.035,0.246c-1.172-0.059-1.852-0.088-2.039-0.088
	c-0.059,0-0.762,0.029-2.109,0.088c-0.047-0.047-0.07-0.135-0.07-0.264c0-0.164,0.023-0.246,0.07-0.246
	c0.152,0,0.378-0.035,0.677-0.105s0.466-0.152,0.501-0.246c0.082-0.316,0.123-0.838,0.123-1.564v-6.363
	c0-1.02-0.053-1.623-0.158-1.811c-0.094-0.176-0.727-0.264-1.898-0.264c-0.668,0-1.122,0.097-1.362,0.29s-0.442,0.618-0.606,1.274
	c-0.012,0.059-0.07,0.088-0.176,0.088c-0.199,0-0.34-0.041-0.422-0.123l0.334-2.514c0.516,0.129,0.92,0.193,1.213,0.193
	C137.314,60.82,137.938,60.832,138.741,60.855z"/>
<path fill="#FFFFFF" d="M159.335,60.82l3.516,9.281c0.211,0.551,0.381,0.973,0.51,1.266c0.07,0.176,0.252,0.319,0.545,0.431
	s0.51,0.167,0.65,0.167c0.047,0,0.07,0.111,0.07,0.334c0,0.047-0.012,0.105-0.035,0.176c-1.172-0.059-1.816-0.088-1.934-0.088
	c-0.012,0-0.691,0.029-2.039,0.088c-0.047-0.047-0.067-0.144-0.062-0.29s0.032-0.22,0.079-0.22c0.141,0,0.316-0.029,0.527-0.088
	s0.334-0.135,0.369-0.229c0.023-0.094,0.035-0.188,0.035-0.281c0-0.152-0.021-0.331-0.062-0.536s-0.079-0.366-0.114-0.483
	l-0.07-0.193l-0.721-1.986c-0.035-0.047-0.07-0.07-0.105-0.07c-0.457-0.035-0.902-0.053-1.336-0.053
	c-0.609,0-1.354,0.029-2.232,0.088l-0.088,0.053l-0.756,1.934c-0.199,0.586-0.299,0.99-0.299,1.213c0,0.164,0.047,0.281,0.141,0.352
	c0.105,0.082,0.275,0.149,0.51,0.202s0.404,0.079,0.51,0.079c0.035,0,0.056,0.07,0.062,0.211s-0.003,0.24-0.026,0.299
	c-1.172-0.059-1.775-0.088-1.811-0.088c-0.234,0-0.439,0.006-0.615,0.018s-0.372,0.023-0.589,0.035s-0.425,0.023-0.624,0.035
	c-0.047-0.047-0.07-0.135-0.07-0.264c0-0.164,0.023-0.246,0.07-0.246c0.141,0,0.322-0.029,0.545-0.088s0.375-0.141,0.457-0.246
	c0.246-0.316,0.521-0.867,0.826-1.652l3.059-7.857c0.023-0.059,0.056-0.152,0.097-0.281s0.073-0.226,0.097-0.29
	s0.059-0.146,0.105-0.246s0.088-0.173,0.123-0.22s0.079-0.1,0.132-0.158s0.111-0.1,0.176-0.123s0.138-0.035,0.22-0.035
	L159.335,60.82z M157.296,67.166c0.609,0.023,1.025,0.035,1.248,0.035c0.516,0,1.049-0.018,1.6-0.053l0.053-0.088l-1.424-3.885
	l-1.512,3.92C157.261,67.142,157.272,67.166,157.296,67.166z"/>
<path fill="#FFFFFF" d="M176.598,60.82c0.398,0,0.803,0.059,1.213,0.176s0.814,0.293,1.213,0.527s0.727,0.568,0.984,1.002
	s0.387,0.938,0.387,1.512c0,0.492-0.185,1.008-0.554,1.547s-0.87,0.955-1.503,1.248c-0.117,0.047-0.152,0.105-0.105,0.176
	c0.586,1.23,1.26,2.262,2.021,3.094c1.125,1.23,2.039,1.846,2.742,1.846c0.035,0.07,0.053,0.152,0.053,0.246
	c0,0.105-0.018,0.193-0.053,0.264c-0.129,0.035-0.287,0.053-0.475,0.053c-1.641,0-3.064-0.844-4.271-2.531
	c-0.188-0.258-0.401-0.565-0.642-0.923s-0.416-0.615-0.527-0.773s-0.24-0.331-0.387-0.519s-0.275-0.328-0.387-0.422
	s-0.231-0.17-0.36-0.229c-0.129-0.047-0.346-0.07-0.65-0.07c-0.094,0-0.164,0.003-0.211,0.009s-0.094,0.032-0.141,0.079
	s-0.07,0.117-0.07,0.211v2.584c0,0.785,0.047,1.295,0.141,1.529c0.059,0.152,0.267,0.275,0.624,0.369s0.612,0.141,0.765,0.141
	c0.047,0,0.07,0.082,0.07,0.246c0,0.105-0.012,0.193-0.035,0.264c-1.172-0.059-1.934-0.088-2.285-0.088l-2.145,0.088
	c-0.035-0.035-0.053-0.141-0.053-0.316c0-0.152,0.018-0.229,0.053-0.229c0.164,0,0.393-0.035,0.686-0.105s0.469-0.158,0.527-0.264
	c0.082-0.141,0.123-0.691,0.123-1.652v-6.645c0-0.691-0.041-1.195-0.123-1.512c-0.035-0.094-0.208-0.182-0.519-0.264
	s-0.542-0.123-0.694-0.123c-0.047,0-0.07-0.07-0.07-0.211c0-0.152,0.023-0.252,0.07-0.299l2.109,0.035
	c0.352,0,0.768-0.012,1.248-0.035S176.258,60.82,176.598,60.82z M176.317,61.593c-0.527,0-0.938,0.041-1.23,0.123
	c-0.047,0.012-0.085,0.056-0.114,0.132s-0.053,0.252-0.07,0.527s-0.026,0.7-0.026,1.274v2.127c0,0.34,0.51,0.51,1.529,0.51h0.439
	c0.41,0,0.835-0.205,1.274-0.615s0.659-0.955,0.659-1.635C178.778,62.408,177.958,61.593,176.317,61.593z"/>
<path fill="#FFFFFF" d="M186.697,60.89c0.527,0,1.441-0.023,2.742-0.07s2.279-0.07,2.936-0.07c0.047,0.34,0.138,0.788,0.272,1.345
	s0.214,0.905,0.237,1.046c-0.059,0.059-0.164,0.088-0.316,0.088s-0.234-0.041-0.246-0.123c-0.176-0.645-0.422-1.058-0.738-1.239
	s-0.75-0.272-1.301-0.272h-1.178c-1.008,0-1.523,0.076-1.547,0.229c-0.059,0.281-0.088,0.773-0.088,1.477v2.812
	c0,0.07,0.252,0.105,0.756,0.105h0.932c0.328,0,0.565,0,0.712,0s0.302-0.023,0.466-0.07s0.27-0.076,0.316-0.088
	s0.108-0.088,0.185-0.229s0.12-0.243,0.132-0.308s0.053-0.231,0.123-0.501c0.012-0.082,0.1-0.123,0.264-0.123
	c0.141,0,0.24,0.029,0.299,0.088v3.322c-0.047,0.047-0.141,0.07-0.281,0.07c-0.152,0-0.246-0.047-0.281-0.141
	c-0.082-0.316-0.152-0.554-0.211-0.712s-0.103-0.252-0.132-0.281s-0.079-0.067-0.149-0.114c-0.152-0.094-0.773-0.141-1.863-0.141
	c-0.844,0-1.266,0.053-1.266,0.158v2.725c0,0.762,0.053,1.295,0.158,1.6c0.035,0.117,0.434,0.176,1.195,0.176h0.844
	c1.09,0,1.828-0.1,2.215-0.299c0.176-0.094,0.372-0.302,0.589-0.624s0.39-0.706,0.519-1.151c0.023-0.07,0.105-0.105,0.246-0.105
	c0.223,0,0.369,0.035,0.439,0.105c-0.059,0.152-0.149,0.396-0.272,0.729s-0.22,0.604-0.29,0.809s-0.146,0.442-0.229,0.712
	s-0.135,0.492-0.158,0.668c-0.598,0-1.541-0.012-2.83-0.035s-2.344-0.035-3.164-0.035l-2.127,0.053
	c-0.035-0.035-0.053-0.129-0.053-0.281s0.018-0.229,0.053-0.229c0.152,0,0.378-0.041,0.677-0.123s0.478-0.176,0.536-0.281
	c0.082-0.141,0.123-0.691,0.123-1.652v-6.645c0-0.691-0.041-1.195-0.123-1.512c-0.035-0.094-0.208-0.182-0.519-0.264
	s-0.542-0.123-0.694-0.123c-0.047,0-0.07-0.07-0.07-0.211c0-0.152,0.023-0.252,0.07-0.299
	C185.215,60.878,185.912,60.89,186.697,60.89z"/>
<path fill="#FFFFFF" d="M198.08,60.89c0.527,0,1.441-0.023,2.742-0.07s2.279-0.07,2.936-0.07c0.047,0.34,0.138,0.788,0.272,1.345
	s0.214,0.905,0.237,1.046c-0.059,0.059-0.164,0.088-0.316,0.088s-0.234-0.041-0.246-0.123c-0.176-0.645-0.422-1.058-0.738-1.239
	s-0.75-0.272-1.301-0.272h-1.178c-1.008,0-1.523,0.076-1.547,0.229c-0.059,0.281-0.088,0.773-0.088,1.477v2.865
	c0,0.07,0.246,0.105,0.738,0.105h0.932c0.785,0,1.266-0.056,1.441-0.167s0.328-0.431,0.457-0.958
	c0.012-0.07,0.023-0.123,0.035-0.158c0.012-0.082,0.1-0.123,0.264-0.123c0.141,0,0.24,0.029,0.299,0.088v3.41
	c-0.047,0.047-0.141,0.07-0.281,0.07c-0.152,0-0.246-0.047-0.281-0.141c-0.082-0.316-0.152-0.554-0.211-0.712
	s-0.103-0.252-0.132-0.281s-0.079-0.067-0.149-0.114c-0.152-0.094-0.773-0.141-1.863-0.141c-0.832,0-1.248,0.053-1.248,0.158v2.777
	c0,0.68,0.053,1.225,0.158,1.635c0.023,0.082,0.188,0.161,0.492,0.237s0.516,0.114,0.633,0.114c0.047,0,0.07,0.088,0.07,0.264
	c0,0.094-0.012,0.176-0.035,0.246c-1.172-0.059-1.852-0.088-2.039-0.088c-0.059,0-0.762,0.029-2.109,0.088
	c-0.047-0.047-0.07-0.135-0.07-0.264c0-0.164,0.023-0.246,0.07-0.246c0.152,0,0.378-0.035,0.677-0.105s0.466-0.152,0.501-0.246
	c0.082-0.316,0.123-0.844,0.123-1.582v-6.768c0-0.691-0.041-1.195-0.123-1.512c-0.035-0.094-0.208-0.182-0.519-0.264
	s-0.542-0.123-0.694-0.123c-0.047,0-0.07-0.07-0.07-0.211c0-0.152,0.023-0.252,0.07-0.299
	C196.598,60.878,197.295,60.89,198.08,60.89z"/>
<path fill="#FFFFFF" d="M208.882,60.89c0.234,0,0.463-0.006,0.686-0.018s0.463-0.026,0.721-0.044s0.469-0.032,0.633-0.044
	c0.023,0.07,0.035,0.158,0.035,0.264c0,0.164-0.023,0.246-0.07,0.246c-0.117,0-0.328,0.041-0.633,0.123s-0.469,0.164-0.492,0.246
	c-0.105,0.41-0.158,0.955-0.158,1.635v6.627c0,0.621,0.053,1.137,0.158,1.547c0.035,0.117,0.434,0.176,1.195,0.176h0.844
	c1.09,0,1.828-0.1,2.215-0.299c0.176-0.094,0.372-0.302,0.589-0.624s0.39-0.706,0.519-1.151c0.023-0.07,0.105-0.105,0.246-0.105
	c0.223,0,0.369,0.035,0.439,0.105c-0.059,0.152-0.149,0.396-0.272,0.729s-0.22,0.604-0.29,0.809s-0.146,0.442-0.229,0.712
	s-0.135,0.492-0.158,0.668c-0.609,0-1.562-0.018-2.856-0.053s-2.341-0.053-3.138-0.053l-2.127,0.053
	c-0.035-0.035-0.053-0.129-0.053-0.281s0.018-0.229,0.053-0.229c0.164,0,0.393-0.035,0.686-0.105s0.469-0.158,0.527-0.264
	c0.082-0.141,0.123-0.691,0.123-1.652v-6.645c0-0.75-0.041-1.283-0.123-1.6c-0.035-0.094-0.202-0.179-0.501-0.255
	s-0.524-0.114-0.677-0.114c-0.047,0-0.07-0.076-0.07-0.229c0-0.141,0.023-0.234,0.07-0.281c0.152,0.012,0.463,0.032,0.932,0.062
	S208.566,60.89,208.882,60.89z"/>
<path fill="#FFFFFF" d="M219.86,60.89c0.527,0,1.441-0.023,2.742-0.07s2.279-0.07,2.936-0.07c0.047,0.34,0.138,0.788,0.272,1.345
	s0.214,0.905,0.237,1.046c-0.059,0.059-0.164,0.088-0.316,0.088s-0.234-0.041-0.246-0.123c-0.176-0.645-0.422-1.058-0.738-1.239
	s-0.75-0.272-1.301-0.272h-1.178c-1.008,0-1.523,0.076-1.547,0.229c-0.059,0.281-0.088,0.773-0.088,1.477v2.812
	c0,0.07,0.252,0.105,0.756,0.105h0.932c0.328,0,0.565,0,0.712,0s0.302-0.023,0.466-0.07s0.27-0.076,0.316-0.088
	s0.108-0.088,0.185-0.229s0.12-0.243,0.132-0.308s0.053-0.231,0.123-0.501c0.012-0.082,0.1-0.123,0.264-0.123
	c0.141,0,0.24,0.029,0.299,0.088v3.322c-0.047,0.047-0.141,0.07-0.281,0.07c-0.152,0-0.246-0.047-0.281-0.141
	c-0.082-0.316-0.152-0.554-0.211-0.712s-0.103-0.252-0.132-0.281s-0.079-0.067-0.149-0.114c-0.152-0.094-0.773-0.141-1.863-0.141
	c-0.844,0-1.266,0.053-1.266,0.158v2.725c0,0.762,0.053,1.295,0.158,1.6c0.035,0.117,0.434,0.176,1.195,0.176h0.844
	c1.09,0,1.828-0.1,2.215-0.299c0.176-0.094,0.372-0.302,0.589-0.624s0.39-0.706,0.519-1.151c0.023-0.07,0.105-0.105,0.246-0.105
	c0.223,0,0.369,0.035,0.439,0.105c-0.059,0.152-0.149,0.396-0.272,0.729s-0.22,0.604-0.29,0.809s-0.146,0.442-0.229,0.712
	s-0.135,0.492-0.158,0.668c-0.598,0-1.541-0.012-2.83-0.035s-2.344-0.035-3.164-0.035l-2.127,0.053
	c-0.035-0.035-0.053-0.129-0.053-0.281s0.018-0.229,0.053-0.229c0.152,0,0.378-0.041,0.677-0.123s0.478-0.176,0.536-0.281
	c0.082-0.141,0.123-0.691,0.123-1.652v-6.645c0-0.691-0.041-1.195-0.123-1.512c-0.035-0.094-0.208-0.182-0.519-0.264
	s-0.542-0.123-0.694-0.123c-0.047,0-0.07-0.07-0.07-0.211c0-0.152,0.023-0.252,0.07-0.299
	C218.378,60.878,219.075,60.89,219.86,60.89z"/>
<path fill="#FFFFFF" d="M231.278,60.89c0.234,0,0.463-0.006,0.686-0.018s0.463-0.026,0.721-0.044s0.469-0.032,0.633-0.044
	c0.023,0.047,0.032,0.144,0.026,0.29s-0.026,0.22-0.062,0.22c-0.117,0-0.328,0.041-0.633,0.123s-0.469,0.164-0.492,0.246
	c-0.105,0.41-0.158,0.955-0.158,1.635v2.865l0.123,0.105h0.123c0.375,0,0.715-0.17,1.02-0.51c1.371-1.535,2.379-2.725,3.023-3.568
	c0.281-0.34,0.422-0.562,0.422-0.668c0-0.199-0.334-0.299-1.002-0.299c-0.047,0-0.07-0.053-0.07-0.158s0.012-0.199,0.035-0.281
	c0.152,0.012,0.352,0.026,0.598,0.044s0.475,0.032,0.686,0.044s0.41,0.018,0.598,0.018c0.293,0,0.627-0.015,1.002-0.044
	s0.633-0.05,0.773-0.062c0.023,0.047,0.032,0.132,0.026,0.255s-0.026,0.185-0.062,0.185c-0.715,0.082-1.254,0.328-1.617,0.738
	l-3.533,4.113c-0.094,0.105-0.053,0.264,0.123,0.475l4.236,4.658c0.188,0.199,0.434,0.363,0.738,0.492s0.542,0.205,0.712,0.229
	s0.308,0.035,0.413,0.035c0.059,0,0.088,0.105,0.088,0.316c0,0.082-0.012,0.146-0.035,0.193c-1.172-0.059-1.898-0.088-2.18-0.088
	c-0.293,0-0.557,0.006-0.791,0.018s-0.498,0.023-0.791,0.035s-0.557,0.023-0.791,0.035c-0.047-0.047-0.07-0.144-0.07-0.29
	s0.023-0.22,0.07-0.22c0.141,0,0.302-0.023,0.483-0.07s0.272-0.117,0.272-0.211c0-0.375-1.33-1.928-3.99-4.658
	c-0.047-0.047-0.217-0.07-0.51-0.07c-0.082,0-0.123,0.047-0.123,0.141v2.883c0,0.68,0.053,1.225,0.158,1.635
	c0.023,0.082,0.188,0.161,0.492,0.237s0.516,0.114,0.633,0.114c0.035,0,0.056,0.07,0.062,0.211s-0.003,0.24-0.026,0.299
	c-1.172-0.059-1.852-0.088-2.039-0.088c-0.059,0-0.762,0.029-2.109,0.088c-0.047-0.047-0.07-0.135-0.07-0.264
	c0-0.164,0.023-0.246,0.07-0.246c0.152,0,0.378-0.035,0.677-0.105s0.466-0.152,0.501-0.246c0.082-0.316,0.123-0.838,0.123-1.564
	v-6.82c0-0.727-0.041-1.248-0.123-1.564c-0.035-0.094-0.202-0.179-0.501-0.255s-0.524-0.114-0.677-0.114
	c-0.047,0-0.07-0.076-0.07-0.229c0-0.141,0.023-0.234,0.07-0.281c0.152,0.012,0.463,0.032,0.932,0.062S230.962,60.89,231.278,60.89z
	"/>
<path fill="#FFFFFF" d="M245.623,60.855c0.803,0.023,1.462,0.035,1.978,0.035s1.178-0.012,1.986-0.035s1.436-0.035,1.881-0.035
	c0.293,0,0.697-0.064,1.213-0.193l0.334,2.514c-0.082,0.082-0.223,0.123-0.422,0.123c-0.105,0-0.164-0.029-0.176-0.088
	c-0.164-0.656-0.366-1.081-0.606-1.274s-0.694-0.29-1.362-0.29c-1.242,0-1.887,0.088-1.934,0.264
	c-0.105,0.375-0.158,0.961-0.158,1.758v6.346c0,0.68,0.053,1.225,0.158,1.635c0.023,0.082,0.188,0.161,0.492,0.237
	s0.516,0.114,0.633,0.114c0.047,0,0.07,0.088,0.07,0.264c0,0.094-0.012,0.176-0.035,0.246c-1.172-0.059-1.852-0.088-2.039-0.088
	c-0.059,0-0.762,0.029-2.109,0.088c-0.047-0.047-0.07-0.135-0.07-0.264c0-0.164,0.023-0.246,0.07-0.246
	c0.152,0,0.378-0.035,0.677-0.105s0.466-0.152,0.501-0.246c0.082-0.316,0.123-0.838,0.123-1.564v-6.363
	c0-1.02-0.053-1.623-0.158-1.811c-0.094-0.176-0.727-0.264-1.898-0.264c-0.668,0-1.122,0.097-1.362,0.29s-0.442,0.618-0.606,1.274
	c-0.012,0.059-0.07,0.088-0.176,0.088c-0.199,0-0.34-0.041-0.422-0.123l0.334-2.514c0.516,0.129,0.92,0.193,1.213,0.193
	C244.196,60.82,244.82,60.832,245.623,60.855z"/>
<path fill="#FFFFFF" d="M273.898,60.82c0.398,0,0.803,0.059,1.213,0.176s0.814,0.293,1.213,0.527s0.727,0.568,0.984,1.002
	s0.387,0.938,0.387,1.512c0,0.492-0.185,1.008-0.554,1.547s-0.87,0.955-1.503,1.248c-0.117,0.047-0.152,0.105-0.105,0.176
	c0.586,1.23,1.26,2.262,2.021,3.094c1.125,1.23,2.039,1.846,2.742,1.846c0.035,0.07,0.053,0.152,0.053,0.246
	c0,0.105-0.018,0.193-0.053,0.264c-0.129,0.035-0.287,0.053-0.475,0.053c-1.641,0-3.064-0.844-4.271-2.531
	c-0.188-0.258-0.401-0.565-0.642-0.923s-0.416-0.615-0.527-0.773s-0.24-0.331-0.387-0.519s-0.275-0.328-0.387-0.422
	s-0.231-0.17-0.36-0.229c-0.129-0.047-0.346-0.07-0.65-0.07c-0.094,0-0.164,0.003-0.211,0.009s-0.094,0.032-0.141,0.079
	s-0.07,0.117-0.07,0.211v2.584c0,0.785,0.047,1.295,0.141,1.529c0.059,0.152,0.267,0.275,0.624,0.369s0.612,0.141,0.765,0.141
	c0.047,0,0.07,0.082,0.07,0.246c0,0.105-0.012,0.193-0.035,0.264c-1.172-0.059-1.934-0.088-2.285-0.088l-2.145,0.088
	c-0.035-0.035-0.053-0.141-0.053-0.316c0-0.152,0.018-0.229,0.053-0.229c0.164,0,0.393-0.035,0.686-0.105s0.469-0.158,0.527-0.264
	c0.082-0.141,0.123-0.691,0.123-1.652v-6.645c0-0.691-0.041-1.195-0.123-1.512c-0.035-0.094-0.208-0.182-0.519-0.264
	s-0.542-0.123-0.694-0.123c-0.047,0-0.07-0.07-0.07-0.211c0-0.152,0.023-0.252,0.07-0.299l2.109,0.035
	c0.352,0,0.768-0.012,1.248-0.035S273.558,60.82,273.898,60.82z M273.617,61.593c-0.527,0-0.938,0.041-1.23,0.123
	c-0.047,0.012-0.085,0.056-0.114,0.132s-0.053,0.252-0.07,0.527s-0.026,0.7-0.026,1.274v2.127c0,0.34,0.51,0.51,1.529,0.51h0.439
	c0.41,0,0.835-0.205,1.274-0.615s0.659-0.955,0.659-1.635C276.078,62.408,275.257,61.593,273.617,61.593z"/>
<circle fill="none" stroke="#FFFFFF" stroke-miterlimit="10" cx="261.072" cy="66.55" r="6.141"/>
<rect x="257.561" y="63.038" transform="matrix(0.7072 0.707 -0.707 0.7072 123.5205 -165.1084)" fill="none" stroke="#FFFFFF" stroke-miterlimit="10" width="7.06" height="7.061"/>
</svg>
